<svg width="29" height="32" viewBox="0 0 29 32" fill="none" xmlns="http://www.w3.org/2000/svg">
<g id="Logo P Branco">
<g id="Union">
<mask id="path-1-inside-1_1117_593" fill="white">
<path fill-rule="evenodd" clip-rule="evenodd" d="M11.2461 2.30545C11.2461 1.22527 12.1217 0.349609 13.2019 0.349609H15.1577C16.2379 0.349609 17.1136 1.22527 17.1136 2.30545H15.5489V3.05523C22.7378 3.74395 28.3596 9.80036 28.3596 17.1698C28.3596 25.0011 22.0111 31.3496 14.1798 31.3496C6.34852 31.3496 0 25.0011 0 17.1698C0 9.80036 5.62179 3.74395 12.8107 3.05523V2.30545H11.2461Z"/>
</mask>
<path d="M11.2461 2.30545H9.24606V4.30545H11.2461V2.30545ZM17.1136 2.30545V4.30545H19.1136V2.30545H17.1136ZM15.5489 2.30545V0.305445H13.5489V2.30545H15.5489ZM15.5489 3.05523H13.5489V4.87278L15.3582 5.04612L15.5489 3.05523ZM12.8107 3.05523L13.0015 5.04612L14.8107 4.87278V3.05523H12.8107ZM12.8107 2.30545H14.8107V0.305445H12.8107V2.30545ZM13.2019 -1.65039C11.0171 -1.65039 9.24606 0.120696 9.24606 2.30545H13.2461C13.2461 2.30785 13.2452 2.31519 13.2418 2.32325C13.2389 2.32998 13.2357 2.33413 13.2331 2.33667C13.2306 2.33922 13.2264 2.34247 13.2197 2.34532C13.2116 2.34873 13.2043 2.34961 13.2019 2.34961V-1.65039ZM15.1577 -1.65039H13.2019V2.34961H15.1577V-1.65039ZM19.1136 2.30545C19.1136 0.120698 17.3425 -1.65039 15.1577 -1.65039V2.34961C15.1553 2.34961 15.148 2.34873 15.1399 2.34532C15.1332 2.34247 15.129 2.33922 15.1265 2.33667C15.124 2.33413 15.1207 2.32998 15.1179 2.32325C15.1144 2.31519 15.1136 2.30785 15.1136 2.30545H19.1136ZM15.5489 4.30545H17.1136V0.305445H15.5489V4.30545ZM17.5489 3.05523V2.30545H13.5489V3.05523H17.5489ZM15.3582 5.04612C21.531 5.63749 26.3596 10.8409 26.3596 17.1698H30.3596C30.3596 8.75977 23.9447 1.85042 15.7396 1.06435L15.3582 5.04612ZM26.3596 17.1698C26.3596 23.8965 20.9065 29.3496 14.1798 29.3496V33.3496C23.1157 33.3496 30.3596 26.1057 30.3596 17.1698H26.3596ZM14.1798 29.3496C7.45309 29.3496 2 23.8965 2 17.1698H-2C-2 26.1057 5.24395 33.3496 14.1798 33.3496V29.3496ZM2 17.1698C2 10.8409 6.82862 5.63749 13.0015 5.04612L12.62 1.06435C4.41496 1.85042 -2 8.75977 -2 17.1698H2ZM10.8107 2.30545V3.05523H14.8107V2.30545H10.8107ZM11.2461 4.30545H12.8107V0.305445H11.2461V4.30545Z" fill="#FEFEFD" mask="url(#path-1-inside-1_1117_593)"/>
</g>
<path id="Rectangle 3" d="M26.9344 8.71746C27.6982 7.95366 27.6982 6.71529 26.9344 5.95149L25.5515 4.5685C24.7877 3.8047 23.5493 3.8047 22.7855 4.5685L26.9344 8.71746Z" fill="#FEFEFD"/>
<path id="Vector" d="M13.3572 22.1153C13.4799 22.0086 13.5474 21.8667 13.5598 21.6894C13.5722 21.5122 13.5251 21.3622 13.4184 21.2395L11.7602 19.332L17.4494 14.3864L19.1076 16.294C19.224 16.4278 19.3658 16.4979 19.533 16.5041C19.7001 16.5108 19.8506 16.4559 19.9845 16.3396C20.1184 16.2232 20.1913 16.0789 20.2034 15.9067C20.2154 15.7348 20.1632 15.582 20.0468 15.4481L19.6396 14.9796L20.1081 14.5723C20.2419 14.456 20.3147 14.3144 20.3264 14.1475C20.338 13.9807 20.2857 13.8304 20.1693 13.6965L19.3402 12.7427L19.8255 12.3209C19.9593 12.2045 20.0296 12.0601 20.0362 11.8874C20.0432 11.7153 19.9885 11.5622 19.8722 11.4284C19.7558 11.2945 19.6115 11.2216 19.4393 11.2095C19.2674 11.1975 19.1146 11.2497 18.9807 11.366L18.5111 11.789L17.6965 10.8519C17.5802 10.7181 17.4386 10.6453 17.2718 10.6336C17.1049 10.622 16.9546 10.6743 16.8207 10.7907L16.3355 11.2125L15.9137 10.7272C15.807 10.6045 15.665 10.537 15.4878 10.5246C15.3105 10.5122 15.1606 10.5593 15.0379 10.666C14.9152 10.7727 14.8476 10.9146 14.8352 11.0919C14.8228 11.2691 14.8699 11.4191 14.9766 11.5418L16.6348 13.4494L10.9456 18.3949L9.28741 16.4874C9.17105 16.3535 9.02674 16.2805 8.8545 16.2685C8.68268 16.2565 8.52984 16.3087 8.39597 16.425C8.26211 16.5414 8.18917 16.6855 8.17715 16.8573C8.16511 17.0295 8.21727 17.1826 8.33364 17.3165L8.75546 17.8017L8.28694 18.209C8.15308 18.3254 8.08031 18.467 8.06865 18.6338C8.05698 18.8006 8.10933 18.9509 8.2257 19.0848L9.0548 20.0386L8.56955 20.4604C8.43569 20.5768 8.36292 20.7184 8.35126 20.8852C8.33959 21.052 8.39194 21.2023 8.50831 21.3362C8.62467 21.4701 8.76877 21.543 8.94059 21.555C9.11283 21.5671 9.26589 21.5149 9.39975 21.3985L9.88391 20.9924L10.6985 21.9294C10.8148 22.0633 10.9564 22.136 11.1232 22.1477C11.2901 22.1594 11.4404 22.107 11.5743 21.9906L12.0595 21.5688L12.4814 22.0541C12.588 22.1768 12.73 22.2443 12.9072 22.2567C13.0845 22.2691 13.2345 22.222 13.3572 22.1153Z" fill="#FEFEFD"/>
</g>
</svg>
